ffmpeg started on 2025-06-15 at 19:39:59
Report written to "D:\Convert\FFMetrics\reports\ssim_report-6.txt"
Log level: 32
Command line:
ffmpeg -hide_banner -nostdin -i "G:\\\xc0\xed\xe8\xec\xe5\\[\xd2\xee\xef]\\\xd1\xea\xe0\xe7\xe0\xed\xe8\xe5 \xee\xe1 \xee\xe1\xf0\xf3\xf7\xe0\xeb\xfc\xed\xfb\xf5 \xea\xee\xeb\xfc\xf6\xe0\xf5\\[DC] Kekkon Yubiwa Monogatari - 02_Telegram_HEVC.mkv" -i "G:\\\xc0\xed\xe8\xec\xe5\\[\xd2\xee\xef]\\\xd1\xea\xe0\xe7\xe0\xed\xe8\xe5 \xee\xe1 \xee\xe1\xf0\xf3\xf7\xe0\xeb\xfc\xed\xfb\xf5 \xea\xee\xeb\xfc\xf6\xe0\xf5\\[DC] Kekkon Yubiwa Monogatari - 02_Telegram.mp4" -lavfi "[0:v]settb=AVTB,setpts=PTS-STARTPTS,format=pix_fmts=yuv420p10,fps=24000/1001,scale=1920:1080:flags=bicubic[main];[1:v]settb=AVTB,setpts=PTS-STARTPTS,format=pix_fmts=yuv420p,fps=24000/1001,scale=1920:1080:flags=bicubic[ref];[main][ref]ssim=eof_action=endall:stats_file='D\\:/Convert/FFMetrics/logs/ssim_logfile-6.txt'" -f null -
Input #0, matroska,webm, from 'G:\Аниме\[Топ]\Сказание об обручальных кольцах\[DC] Kekkon Yubiwa Monogatari - 02_Telegram_HEVC.mkv':
  Metadata:
    COMPATIBLE_BRANDS: isomiso2avc1mp41
    MAJOR_BRAND     : isom
    MINOR_VERSION   : 512
    ENCODER         : Lavf61.7.100
  Duration: 00:23:50.40, start: -0.021000, bitrate: 1316 kb/s
  Stream #0:0: Video: hevc (Main 10), yuv420p10le(tv, bt709, progressive), 1920x1080 [SAR 1:1 DAR 16:9], 23.98 fps, 23.98 tbr, 1k tbn (default)
      Metadata:
        HANDLER_NAME    : VideoHandler
        VENDOR_ID       : [0][0][0][0]
        ENCODER         : Lavc61.19.100 libx265
        BPS             : 1121630
        DURATION        : 00:23:46.591708333
        NUMBER_OF_FRAMES: 34204
        NUMBER_OF_BYTES : 200013423
        _STATISTICS_WRITING_APP: mkvpropedit v66.0.0 ('Josie') 64-bit
        _STATISTICS_WRITING_DATE_UTC: 2025-06-15 13:59:31
        _STATISTICS_TAGS: BPS DURATION NUMBER_OF_FRAMES NUMBER_OF_BYTES
  Stream #0:1: Audio: aac (LC), 48000 Hz, stereo, fltp (default)
      Metadata:
        HANDLER_NAME    : SoundHandler
        VENDOR_ID       : [0][0][0][0]
        ENCODER         : Lavc61.19.100 aac
        BPS             : 193415
        DURATION        : 00:23:50.400000000
        NUMBER_OF_FRAMES: 67051
        NUMBER_OF_BYTES : 34582745
        _STATISTICS_WRITING_APP: mkvpropedit v66.0.0 ('Josie') 64-bit
        _STATISTICS_WRITING_DATE_UTC: 2025-06-15 13:59:31
        _STATISTICS_TAGS: BPS DURATION NUMBER_OF_FRAMES NUMBER_OF_BYTES
Input #1, mov,mp4,m4a,3gp,3g2,mj2, from 'G:\Аниме\[Топ]\Сказание об обручальных кольцах\[DC] Kekkon Yubiwa Monogatari - 02_Telegram.mp4':
  Metadata:
    major_brand     : isom
    minor_version   : 512
    compatible_brands: isomiso2avc1mp41
    encoder         : Lavf60.16.100
  Duration: 00:23:50.38, start: 0.000000, bitrate: 3809 kb/s
  Stream #1:0[0x1](und): Video: h264 (High) (avc1 / 0x31637661), yuv420p(tv, bt709, progressive), 1920x1080 [SAR 1:1 DAR 16:9], 3671 kb/s, 23.98 fps, 23.98 tbr, 24k tbn (default)
      Metadata:
        handler_name    : VideoHandler
        vendor_id       : [0][0][0][0]
        encoder         : Lavc60.31.102 h264_qsv
  Stream #1:1[0x2](und): Audio: aac (HE-AACv2) (mp4a / 0x6134706D), 48000 Hz, stereo, fltp, 144 kb/s (default)
      Metadata:
        handler_name    : SoundHandler
        vendor_id       : [0][0][0][0]
Stream mapping:
  Stream #0:0 (hevc) -> settb:default
  Stream #1:0 (h264) -> settb:default
  ssim:default -> Stream #0:0 (wrapped_avframe)
  Stream #0:1 -> #0:1 (aac (native) -> pcm_s16le (native))
Output #0, null, to 'pipe:':
  Metadata:
    COMPATIBLE_BRANDS: isomiso2avc1mp41
    MAJOR_BRAND     : isom
    MINOR_VERSION   : 512
    encoder         : Lavf61.7.100
  Stream #0:0: Video: wrapped_avframe, yuv420p10le(tv, bt709, progressive), 1920x1080 [SAR 1:1 DAR 16:9], q=2-31, 200 kb/s, 23.98 fps, 23.98 tbn
      Metadata:
        encoder         : Lavc61.19.100 wrapped_avframe
  Stream #0:1: Audio: pcm_s16le, 48000 Hz, stereo, s16, 1536 kb/s (default)
      Metadata:
        HANDLER_NAME    : SoundHandler
        VENDOR_ID       : [0][0][0][0]
        _STATISTICS_TAGS: BPS DURATION NUMBER_OF_FRAMES NUMBER_OF_BYTES
        BPS             : 193415
        DURATION        : 00:23:50.400000000
        NUMBER_OF_FRAMES: 67051
        NUMBER_OF_BYTES : 34582745
        _STATISTICS_WRITING_APP: mkvpropedit v66.0.0 ('Josie') 64-bit
        _STATISTICS_WRITING_DATE_UTC: 2025-06-15 13:59:31
        encoder         : Lavc61.19.100 pcm_s16le
frame=  184 fps=0.0 q=-0.0 size=N/A time=00:00:07.67 bitrate=N/A speed=14.7x    frame=  416 fps=406 q=-0.0 size=N/A time=00:00:17.35 bitrate=N/A speed=16.9x    frame=  646 fps=418 q=-0.0 size=N/A time=00:00:26.94 bitrate=N/A speed=17.4x    frame=  888 fps=429 q=-0.0 size=N/A time=00:00:37.03 bitrate=N/A speed=17.9x    frame= 1147 fps=445 q=-0.0 size=N/A time=00:00:47.83 bitrate=N/A speed=18.6x    frame= 1363 fps=441 q=-0.0 size=N/A time=00:00:56.84 bitrate=N/A speed=18.4x    frame= 1628 fps=450 q=-0.0 size=N/A time=00:01:07.90 bitrate=N/A speed=18.8x    frame= 1861 fps=452 q=-0.0 size=N/A time=00:01:17.61 bitrate=N/A speed=18.8x    frame= 2100 fps=452 q=-0.0 size=N/A time=00:01:27.58 bitrate=N/A speed=18.9x    frame= 2312 fps=449 q=-0.0 size=N/A time=00:01:36.42 bitrate=N/A speed=18.7x    frame= 2554 fps=451 q=-0.0 size=N/A time=00:01:46.52 bitrate=N/A speed=18.8x    frame= 2813 fps=454 q=-0.0 size=N/A time=00:01:57.32 bitrate=N/A speed=  19x    frame= 3007 fps=449 q=-0.0 size=N/A time=00:02:05.41 bitrate=N/A speed=18.7x    frame= 3212 fps=445 q=-0.0 size=N/A time=00:02:13.96 bitrate=N/A speed=18.6x    frame= 3402 fps=440 q=-0.0 size=N/A time=00:02:21.89 bitrate=N/A speed=18.3x    frame= 3569 fps=433 q=-0.0 size=N/A time=00:02:28.85 bitrate=N/A speed=  18x    frame= 3789 fps=433 q=-0.0 size=N/A time=00:02:38.03 bitrate=N/A speed=  18x    frame= 4042 fps=436 q=-0.0 size=N/A time=00:02:48.58 bitrate=N/A speed=18.2x    frame= 4283 fps=437 q=-0.0 size=N/A time=00:02:58.63 bitrate=N/A speed=18.2x    frame= 4493 fps=436 q=-0.0 size=N/A time=00:03:07.39 bitrate=N/A speed=18.2x    frame= 4729 fps=437 q=-0.0 size=N/A time=00:03:17.23 bitrate=N/A speed=18.2x    frame= 4946 fps=436 q=-0.0 size=N/A time=00:03:26.28 bitrate=N/A speed=18.2x    frame= 5154 fps=435 q=-0.0 size=N/A time=00:03:34.96 bitrate=N/A speed=18.1x    frame= 5377 fps=434 q=-0.0 size=N/A time=00:03:44.26 bitrate=N/A speed=18.1x    frame= 5604 fps=435 q=-0.0 size=N/A time=00:03:53.73 bitrate=N/A speed=18.1x    frame= 5840 fps=436 q=-0.0 size=N/A time=00:04:03.57 bitrate=N/A speed=18.2x    frame= 6070 fps=436 q=-0.0 size=N/A time=00:04:13.16 bitrate=N/A speed=18.2x    frame= 6268 fps=434 q=-0.0 size=N/A time=00:04:21.42 bitrate=N/A speed=18.1x    frame= 6486 fps=434 q=-0.0 size=N/A time=00:04:30.52 bitrate=N/A speed=18.1x    frame= 6715 fps=434 q=-0.0 size=N/A time=00:04:40.07 bitrate=N/A speed=18.1x    frame= 6947 fps=435 q=-0.0 size=N/A time=00:04:49.74 bitrate=N/A speed=18.1x    frame= 7178 fps=435 q=-0.0 size=N/A time=00:04:59.38 bitrate=N/A speed=18.1x    frame= 7405 fps=435 q=-0.0 size=N/A time=00:05:08.85 bitrate=N/A speed=18.2x    frame= 7619 fps=435 q=-0.0 size=N/A time=00:05:17.77 bitrate=N/A speed=18.1x    frame= 7828 fps=434 q=-0.0 size=N/A time=00:05:26.49 bitrate=N/A speed=18.1x    frame= 8060 fps=434 q=-0.0 size=N/A time=00:05:36.16 bitrate=N/A speed=18.1x    frame= 8242 fps=432 q=-0.0 size=N/A time=00:05:43.76 bitrate=N/A speed=  18x    frame= 8424 fps=430 q=-0.0 size=N/A time=00:05:51.35 bitrate=N/A speed=17.9x    frame= 8616 fps=428 q=-0.0 size=N/A time=00:05:59.35 bitrate=N/A speed=17.9x    frame= 8832 fps=428 q=-0.0 size=N/A time=00:06:08.36 bitrate=N/A speed=17.9x    frame= 9046 fps=428 q=-0.0 size=N/A time=00:06:17.29 bitrate=N/A speed=17.9x    frame= 9205 fps=425 q=-0.0 size=N/A time=00:06:23.92 bitrate=N/A speed=17.7x    frame= 9421 fps=425 q=-0.0 size=N/A time=00:06:32.93 bitrate=N/A speed=17.7x    frame= 9590 fps=423 q=-0.0 size=N/A time=00:06:39.98 bitrate=N/A speed=17.6x    frame= 9744 fps=420 q=-0.0 size=N/A time=00:06:46.40 bitrate=N/A speed=17.5x    frame= 9959 fps=420 q=-0.0 size=N/A time=00:06:55.37 bitrate=N/A speed=17.5x    frame=10162 fps=419 q=-0.0 size=N/A time=00:07:03.84 bitrate=N/A speed=17.5x    frame=10374 fps=419 q=-0.0 size=N/A time=00:07:12.68 bitrate=N/A speed=17.5x    frame=10635 fps=421 q=-0.0 size=N/A time=00:07:23.56 bitrate=N/A speed=17.6x    frame=10892 fps=422 q=-0.0 size=N/A time=00:07:34.28 bitrate=N/A speed=17.6x    frame=11116 fps=423 q=-0.0 size=N/A time=00:07:43.62 bitrate=N/A speed=17.6x    frame=11366 fps=424 q=-0.0 size=N/A time=00:07:54.05 bitrate=N/A speed=17.7x    frame=11609 fps=425 q=-0.0 size=N/A time=00:08:04.19 bitrate=N/A speed=17.7x    frame=11848 fps=426 q=-0.0 size=N/A time=00:08:14.16 bitrate=N/A speed=17.8x    frame=12087 fps=426 q=-0.0 size=N/A time=00:08:24.12 bitrate=N/A speed=17.8x    frame=12315 fps=427 q=-0.0 size=N/A time=00:08:33.63 bitrate=N/A speed=17.8x    frame=12552 fps=427 q=-0.0 size=N/A time=00:08:43.52 bitrate=N/A speed=17.8x    frame=12809 fps=428 q=-0.0 size=N/A time=00:08:54.24 bitrate=N/A speed=17.9x    frame=13044 fps=429 q=-0.0 size=N/A time=00:09:04.04 bitrate=N/A speed=17.9x    frame=13287 fps=429 q=-0.0 size=N/A time=00:09:14.17 bitrate=N/A speed=17.9x    frame=13552 fps=431 q=-0.0 size=N/A time=00:09:25.23 bitrate=N/A speed=  18x    frame=13807 fps=432 q=-0.0 size=N/A time=00:09:35.86 bitrate=N/A speed=  18x    frame=14070 fps=433 q=-0.0 size=N/A time=00:09:46.83 bitrate=N/A speed=18.1x    frame=14308 fps=433 q=-0.0 size=N/A time=00:09:56.76 bitrate=N/A speed=18.1x    frame=14568 fps=434 q=-0.0 size=N/A time=00:10:07.60 bitrate=N/A speed=18.1x    frame=14820 fps=435 q=-0.0 size=N/A time=00:10:18.11 bitrate=N/A speed=18.2x    frame=15083 fps=436 q=-0.0 size=N/A time=00:10:29.08 bitrate=N/A speed=18.2x    frame=15343 fps=437 q=-0.0 size=N/A time=00:10:39.93 bitrate=N/A speed=18.2x    frame=15604 fps=438 q=-0.0 size=N/A time=00:10:50.81 bitrate=N/A speed=18.3x    frame=15840 fps=439 q=-0.0 size=N/A time=00:11:00.66 bitrate=N/A speed=18.3x    frame=16080 fps=439 q=-0.0 size=N/A time=00:11:10.67 bitrate=N/A speed=18.3x    frame=16333 fps=440 q=-0.0 size=N/A time=00:11:21.22 bitrate=N/A speed=18.3x    frame=16551 fps=440 q=-0.0 size=N/A time=00:11:30.31 bitrate=N/A speed=18.3x    frame=16774 fps=440 q=-0.0 size=N/A time=00:11:39.61 bitrate=N/A speed=18.3x    frame=17010 fps=440 q=-0.0 size=N/A time=00:11:49.45 bitrate=N/A speed=18.3x    frame=17198 fps=439 q=-0.0 size=N/A time=00:11:57.29 bitrate=N/A speed=18.3x    frame=17447 fps=439 q=-0.0 size=N/A time=00:12:07.68 bitrate=N/A speed=18.3x    frame=17700 fps=440 q=-0.0 size=N/A time=00:12:18.23 bitrate=N/A speed=18.4x    frame=17939 fps=440 q=-0.0 size=N/A time=00:12:28.20 bitrate=N/A speed=18.4x    frame=18112 fps=439 q=-0.0 size=N/A time=00:12:35.42 bitrate=N/A speed=18.3x    frame=18293 fps=438 q=-0.0 size=N/A time=00:12:42.97 bitrate=N/A speed=18.3x    frame=18524 fps=438 q=-0.0 size=N/A time=00:12:52.60 bitrate=N/A speed=18.3x    frame=18787 fps=439 q=-0.0 size=N/A time=00:13:03.57 bitrate=N/A speed=18.3x    frame=19036 fps=439 q=-0.0 size=N/A time=00:13:13.95 bitrate=N/A speed=18.3x    frame=19273 fps=440 q=-0.0 size=N/A time=00:13:23.84 bitrate=N/A speed=18.3x    frame=19525 fps=440 q=-0.0 size=N/A time=00:13:34.35 bitrate=N/A speed=18.4x    frame=19741 fps=440 q=-0.0 size=N/A time=00:13:43.36 bitrate=N/A speed=18.3x    frame=19931 fps=439 q=-0.0 size=N/A time=00:13:51.28 bitrate=N/A speed=18.3x    frame=20192 fps=440 q=-0.0 size=N/A time=00:14:02.17 bitrate=N/A speed=18.3x    frame=20428 fps=440 q=-0.0 size=N/A time=00:14:12.01 bitrate=N/A speed=18.4x    frame=20676 fps=440 q=-0.0 size=N/A time=00:14:22.36 bitrate=N/A speed=18.4x    frame=20906 fps=441 q=-0.0 size=N/A time=00:14:31.95 bitrate=N/A speed=18.4x    frame=21149 fps=441 q=-0.0 size=N/A time=00:14:42.08 bitrate=N/A speed=18.4x    frame=21421 fps=442 q=-0.0 size=N/A time=00:14:53.43 bitrate=N/A speed=18.4x    frame=21608 fps=441 q=-0.0 size=N/A time=00:15:01.23 bitrate=N/A speed=18.4x    frame=21866 fps=442 q=-0.0 size=N/A time=00:15:11.99 bitrate=N/A speed=18.4x    frame=22129 fps=442 q=-0.0 size=N/A time=00:15:22.96 bitrate=N/A speed=18.4x    frame=22359 fps=442 q=-0.0 size=N/A time=00:15:32.55 bitrate=N/A speed=18.5x    frame=22617 fps=443 q=-0.0 size=N/A time=00:15:43.31 bitrate=N/A speed=18.5x    frame=22868 fps=443 q=-0.0 size=N/A time=00:15:53.78 bitrate=N/A speed=18.5x    frame=23120 fps=444 q=-0.0 size=N/A time=00:16:04.29 bitrate=N/A speed=18.5x    frame=23377 fps=444 q=-0.0 size=N/A time=00:16:15.01 bitrate=N/A speed=18.5x    frame=23620 fps=445 q=-0.0 size=N/A time=00:16:25.15 bitrate=N/A speed=18.5x    frame=23867 fps=445 q=-0.0 size=N/A time=00:16:35.45 bitrate=N/A speed=18.6x    frame=24120 fps=445 q=-0.0 size=N/A time=00:16:46.00 bitrate=N/A speed=18.6x    frame=24328 fps=445 q=-0.0 size=N/A time=00:16:54.68 bitrate=N/A speed=18.6x    frame=24586 fps=446 q=-0.0 size=N/A time=00:17:05.44 bitrate=N/A speed=18.6x    frame=24818 fps=446 q=-0.0 size=N/A time=00:17:15.11 bitrate=N/A speed=18.6x    frame=25043 fps=446 q=-0.0 size=N/A time=00:17:24.50 bitrate=N/A speed=18.6x    frame=25234 fps=445 q=-0.0 size=N/A time=00:17:32.46 bitrate=N/A speed=18.6x    frame=25443 fps=444 q=-0.0 size=N/A time=00:17:41.18 bitrate=N/A speed=18.5x    frame=25639 fps=444 q=-0.0 size=N/A time=00:17:49.35 bitrate=N/A speed=18.5x    frame=25824 fps=443 q=-0.0 size=N/A time=00:17:57.07 bitrate=N/A speed=18.5x    frame=26009 fps=442 q=-0.0 size=N/A time=00:18:04.79 bitrate=N/A speed=18.5x    frame=26223 fps=442 q=-0.0 size=N/A time=00:18:13.71 bitrate=N/A speed=18.4x    frame=26428 fps=442 q=-0.0 size=N/A time=00:18:22.26 bitrate=N/A speed=18.4x    frame=26643 fps=442 q=-0.0 size=N/A time=00:18:31.23 bitrate=N/A speed=18.4x    frame=26802 fps=440 q=-0.0 size=N/A time=00:18:37.86 bitrate=N/A speed=18.4x    frame=26992 fps=440 q=-0.0 size=N/A time=00:18:45.79 bitrate=N/A speed=18.3x    frame=27188 fps=439 q=-0.0 size=N/A time=00:18:53.96 bitrate=N/A speed=18.3x    frame=27432 fps=440 q=-0.0 size=N/A time=00:19:04.14 bitrate=N/A speed=18.3x    frame=27695 fps=440 q=-0.0 size=N/A time=00:19:15.11 bitrate=N/A speed=18.4x    frame=27940 fps=440 q=-0.0 size=N/A time=00:19:25.33 bitrate=N/A speed=18.4x    frame=28194 fps=441 q=-0.0 size=N/A time=00:19:35.92 bitrate=N/A speed=18.4x    frame=28398 fps=440 q=-0.0 size=N/A time=00:19:44.43 bitrate=N/A speed=18.4x    frame=28616 fps=440 q=-0.0 size=N/A time=00:19:53.52 bitrate=N/A speed=18.4x    frame=28868 fps=441 q=-0.0 size=N/A time=00:20:04.03 bitrate=N/A speed=18.4x    frame=29061 fps=440 q=-0.0 size=N/A time=00:20:12.08 bitrate=N/A speed=18.4x    frame=29274 fps=440 q=-0.0 size=N/A time=00:20:20.96 bitrate=N/A speed=18.3x    frame=29541 fps=441 q=-0.0 size=N/A time=00:20:32.10 bitrate=N/A speed=18.4x    frame=29803 fps=441 q=-0.0 size=N/A time=00:20:43.03 bitrate=N/A speed=18.4x    frame=30044 fps=441 q=-0.0 size=N/A time=00:20:53.08 bitrate=N/A speed=18.4x    frame=30309 fps=442 q=-0.0 size=N/A time=00:21:04.13 bitrate=N/A speed=18.4x    frame=30564 fps=442 q=-0.0 size=N/A time=00:21:14.77 bitrate=N/A speed=18.4x    frame=30841 fps=443 q=-0.0 size=N/A time=00:21:26.32 bitrate=N/A speed=18.5x    frame=31103 fps=443 q=-0.0 size=N/A time=00:21:37.25 bitrate=N/A speed=18.5x    frame=31365 fps=444 q=-0.0 size=N/A time=00:21:48.18 bitrate=N/A speed=18.5x    frame=31615 fps=444 q=-0.0 size=N/A time=00:21:58.60 bitrate=N/A speed=18.5x    frame=31824 fps=444 q=-0.0 size=N/A time=00:22:07.32 bitrate=N/A speed=18.5x    frame=32033 fps=444 q=-0.0 size=N/A time=00:22:16.04 bitrate=N/A speed=18.5x    frame=32215 fps=443 q=-0.0 size=N/A time=00:22:23.63 bitrate=N/A speed=18.5x    frame=32391 fps=442 q=-0.0 size=N/A time=00:22:30.97 bitrate=N/A speed=18.4x    frame=32602 fps=442 q=-0.0 size=N/A time=00:22:39.77 bitrate=N/A speed=18.4x    frame=32818 fps=442 q=-0.0 size=N/A time=00:22:48.78 bitrate=N/A speed=18.4x    frame=33032 fps=442 q=-0.0 size=N/A time=00:22:57.70 bitrate=N/A speed=18.4x    frame=33252 fps=442 q=-0.0 size=N/A time=00:23:06.88 bitrate=N/A speed=18.4x    frame=33470 fps=441 q=-0.0 size=N/A time=00:23:15.97 bitrate=N/A speed=18.4x    frame=33658 fps=441 q=-0.0 size=N/A time=00:23:23.81 bitrate=N/A speed=18.4x    frame=33836 fps=440 q=-0.0 size=N/A time=00:23:31.24 bitrate=N/A speed=18.4x    frame=34029 fps=440 q=-0.0 size=N/A time=00:23:39.29 bitrate=N/A speed=18.3x    [Parsed_ssim_10 @ 0000023e8c817b80] SSIM Y:0.992154 (21.053471) U:0.993311 (21.746699) V:0.993308 (21.744356) All:0.992539 (21.272128)
[out#0/null @ 0000023e8a53ca80] video:14697KiB audio:268204KiB subtitle:0KiB other streams:0KiB global headers:0KiB muxing overhead: unknown
frame=34204 fps=439 q=-0.0 Lsize=N/A time=00:23:46.59 bitrate=N/A speed=18.3x    
